<?xml version="1.0" encoding="utf-8"?>
<!-- Generator: Adobe Illustrator 22.1.0, SVG Export Plug-In . SVG Version: 6.00 Build 0)  -->
<svg version="1.1" id="Layer_1" xmlns="http://www.w3.org/2000/svg" xmlns:xlink="http://www.w3.org/1999/xlink" x="0px" y="0px"
	 viewBox="0 0 24 24" style="enable-background:new 0 0 24 24;" xml:space="preserve">
<style type="text/css">
	.st0{fill:#787878;}
</style>
<path class="st0" d="M6,12h10v1H6V12z M13.8,9H6v1h9C14.6,9.7,14.2,9.4,13.8,9z M19,11v2.6c0,4.1-6,2.4-6,2.4s1.5,6-2.6,6H3V2h9.5
	c0.3-0.7,0.8-1.4,1.3-2H1v24h10.2c3.2,0,9.8-7.2,9.8-9.6v-3.9C20.4,10.8,19.7,10.9,19,11z M6,7h6.5c-0.1-0.3-0.2-0.6-0.3-1H6V7z
	 M18.5,5C18.3,5,18,4.8,18,4.5C18,4.2,18.2,4,18.5,4C18.8,4,19,4.2,19,4.5C19,4.8,18.8,5,18.5,5z M18.5,5.9c-0.8,0-1.4-0.6-1.4-1.4
	s0.6-1.4,1.4-1.4s1.4,0.6,1.4,1.4S19.3,5.9,18.5,5.9 M18.5,1.8C16,1.8,14,4.5,14,4.5s2,2.7,4.5,2.7S23,4.5,23,4.5S21,1.8,18.5,1.8"
	/>
</svg>
