<svg id="Layer_1" xmlns="http://www.w3.org/2000/svg" viewBox="0 0 126.4 126.3">
	<style>.st0{fill:#787878}</style>
	<g id="Layer_2_1_">
	<path transform="rotate(-18.522 63.204 63.487)" class="st0" d="M54.4 55H72v17H54.4z"/>
	<path transform="rotate(-18.522 63.204 63.487)" class="st0" d="M54.4 55H72v17H54.4z"/>
	<path class="st0" d="M120.5 46.2C107.6 3.2 89-6.8 46 6.1S-7 37.6 5.9 80.6s31.5 53 74.5 40.1 53-31.5 40.1-74.5zM98.8 74.1l-8.1 2.7 2.8 8.4c1.1 3.4-.7 7.1-4.1 8.2-.7.2-1.5.4-2.2.3-2.6-.1-5.1-1.8-6-4.4l-2.8-8.4-16.7 5.6 2.8 8.4c1.1 3.4-.7 7.1-4.1 8.2-.7.2-1.5.4-2.2.3-2.6-.1-5.1-1.8-6-4.4l-2.8-8.4-8.1 2.7c-.7.2-1.5.4-2.2.3-2.6-.1-5.1-1.8-6-4.4-1.1-3.4.7-7.1 4.1-8.2l8.1-2.7-5.4-16.1-8.1 2.7c-.7.2-1.5.4-2.2.3-2.6-.1-5.1-1.8-6-4.4-1.1-3.4.7-7.1 4.1-8.2l8.1-2.7-2.8-8.4c-1.1-3.4.7-7.1 4.1-8.2s7.1.7 8.2 4.1l2.8 8.4 16.7-5.6-2.8-8.4c-1.1-3.4.7-7.1 4.1-8.2 3.4-1.1 7.1.7 8.2 4.1l2.8 8.4 8.1-2.7c3.4-1.1 7.1.7 8.2 4.1 1.1 3.4-.7 7.1-4.1 8.2l-8.1 2.7 5.4 16.1 8.1-2.7c3.4-1.1 7.1.7 8.2 4.1 1.1 3.4-.7 7.1-4.1 8.2z"/>
	</g>
</svg>